#N canvas -11 -11 1920 956 10;
#X obj 130 52 inlet;
#X obj 140 306 outlet~;
#X obj 89 53 r r;
#X obj 44 205 pack 0 0;
#X obj 130 77 sel 0;
#X msg 130 124 stop;
#X obj 157 101 t b b b;
#X obj 177 208 pack 1 0;
#X obj 237 49 r a;
#X obj 274 46 r d;
#X obj 308 45 r s;
#X obj 237 135 + 1;
#X obj 238 163 delay;
#X obj 238 207 pack 0 0 0;
#X obj 238 232 route 0;
#X obj 140 267 line~;
#X obj 140 208 0;
#X text 49 185 Release;
#X text 179 186 Attack;
#X text 254 187 Decay;
#X connect 0 0 4 0;
#X connect 2 0 3 1;
#X connect 3 0 15 0;
#X connect 4 0 3 0;
#X connect 4 0 5 0;
#X connect 4 1 6 0;
#X connect 5 0 12 0;
#X connect 6 0 12 0;
#X connect 6 1 7 0;
#X connect 6 2 16 0;
#X connect 7 0 15 0;
#X connect 8 0 7 1;
#X connect 8 0 11 0;
#X connect 9 0 13 2;
#X connect 10 0 13 1;
#X connect 11 0 12 1;
#X connect 12 0 13 0;
#X connect 13 0 14 0;
#X connect 14 0 15 0;
#X connect 15 0 1 0;
#X connect 16 0 15 0;
