#N canvas 544 112 1346 974 10;
#X obj 5 5 notein;
#X obj 5 30 poly 4 1;
#X obj 5 55 pack 0 0 0;
#X obj 5 79 route 1 2 3 4;
#X obj 5 198 *~;
#X obj 5 272 dac~;
#X obj 284 40 vsl 15 128 10 10010 1 1 empty empty A 0 -9 0 10 -262144
-1 -1 1700 1;
#X obj 320 41 vsl 15 128 10 10010 1 1 empty empty D 0 -9 0 10 -262144
-1 -1 2100 1;
#X obj 355 41 vsl 15 128 0.1 1.1 1 1 empty empty S 0 -9 0 10 -262144
-1 -1 1600 1;
#X obj 392 41 vsl 15 128 10 10010 1 1 empty empty R 0 -9 0 10 -262144
-1 -1 1900 1;
#X obj 284 178 - 10;
#X obj 320 177 - 10;
#X obj 392 177 - 10;
#X obj 284 201 s a;
#X obj 320 201 s d;
#X obj 355 201 s s;
#X obj 392 202 s r;
#X obj 76 287 vsl 15 128 0 1 0 1 empty empty 2nd 0 -9 0 10 -262144
-1 -1 6900 1;
#X obj 111 287 vsl 15 128 0 1 0 1 empty empty 3rd 0 -9 0 10 -162280
-1 -1 3500 1;
#X obj 104 30 bendin;
#X obj 104 52 - 8192;
#X obj 104 74 / 4092;
#X obj 104 95 s b;
#X obj 355 177 - 10;
#X obj 137 145 ctlin;
#X obj 137 176 / 127;
#X obj 5 245 *~;
#X obj 144 285 vsl 15 128 0 1 0 1 empty empty 4th 0 -9 0 10 -262144
-1 -1 1800 1;
#X obj 177 285 vsl 15 128 0 1 0 0 empty empty 5th 0 -9 0 10 -162280
-1 -1 0 1;
#X obj 211 286 vsl 15 128 0 1 0 0 empty empty 6th 0 -9 0 10 -162280
-1 -1 0 1;
#X obj 246 285 vsl 15 128 0 1 0 0 empty empty 7th 0 -9 0 10 -66577
-1 -1 0 1;
#X obj 207 56 vsl 15 128 0.0005 0.05 1 1 empty empty MasterVolume -30
-9 0 10 -1 -262144 -1 9350 1;
#X obj 207 193 s V;
#X obj 20 221 r V;
#X obj 281 283 vsl 15 128 0 1 0 0 empty empty 8th 0 -9 0 10 -262144
-1 -1 0 1;
#X obj 315 284 vsl 15 128 0 1 0 0 empty empty 9th 0 -9 0 10 -162280
-1 -1 0 1;
#X obj 350 284 vsl 15 128 0 1 0 0 empty empty 10th 0 -9 0 10 -162280
-1 -1 0 1;
#X obj 390 284 vsl 15 128 0 1 0 0 empty empty 11th 0 -9 0 10 -66577
-1 -1 0 1;
#X text 118 253 Harmonic Silders to control the tone;
#X text 273 8 Volume envolope controll;
#X obj 76 424 s h2;
#X obj 111 424 s h3;
#X obj 144 425 s h4;
#X obj 177 425 s h5;
#X obj 211 425 s h6;
#X obj 246 425 s h7;
#X obj 350 425 s h10;
#X obj 390 425 s h11;
#X obj 281 425 s h8;
#X obj 315 425 s h9;
#X msg 105 145 127;
#X obj 105 121 loadbang;
#X obj 5 100 note;
#X obj 23 122 note;
#X obj 43 144 note;
#X obj 61 165 note;
#X connect 0 0 1 0;
#X connect 0 1 1 1;
#X connect 1 0 2 0;
#X connect 1 1 2 1;
#X connect 1 2 2 2;
#X connect 2 0 3 0;
#X connect 3 0 52 0;
#X connect 3 1 53 0;
#X connect 3 2 54 0;
#X connect 3 3 55 0;
#X connect 4 0 26 0;
#X connect 6 0 10 0;
#X connect 7 0 11 0;
#X connect 8 0 23 0;
#X connect 9 0 12 0;
#X connect 10 0 13 0;
#X connect 11 0 14 0;
#X connect 12 0 16 0;
#X connect 17 0 40 0;
#X connect 18 0 41 0;
#X connect 19 0 20 0;
#X connect 20 0 21 0;
#X connect 21 0 22 0;
#X connect 23 0 15 0;
#X connect 24 0 25 0;
#X connect 25 0 4 1;
#X connect 26 0 5 0;
#X connect 26 0 5 1;
#X connect 27 0 42 0;
#X connect 28 0 43 0;
#X connect 29 0 44 0;
#X connect 30 0 45 0;
#X connect 31 0 32 0;
#X connect 33 0 26 1;
#X connect 34 0 48 0;
#X connect 35 0 49 0;
#X connect 36 0 46 0;
#X connect 37 0 47 0;
#X connect 50 0 25 0;
#X connect 51 0 50 0;
#X connect 52 0 4 0;
#X connect 53 0 4 0;
#X connect 54 0 4 0;
#X connect 55 0 4 0;
