#N canvas 1159 104 450 549 10;
#X obj 20 7 inlet;
#X obj 20 33 unpack 0 0;
#X obj 20 125 mtof;
#X obj 20 198 *~;
#X obj 20 222 *~;
#X obj 20 245 outlet~;
#X obj 20 170 -~ 0.5;
#X obj 120 159 sel 0;
#X obj 120 190 / 127;
#X obj 28 56 r b;
#X obj 28 78 t b f;
#X obj 20 101 + 0;
#X obj 77 172 adsr;
#X obj 20 147 tone;
#X connect 0 0 1 0;
#X connect 1 0 11 0;
#X connect 1 1 7 0;
#X connect 1 1 12 0;
#X connect 2 0 13 0;
#X connect 3 0 4 0;
#X connect 4 0 5 0;
#X connect 6 0 3 0;
#X connect 7 1 8 0;
#X connect 8 0 4 1;
#X connect 9 0 10 0;
#X connect 10 0 11 0;
#X connect 10 1 11 1;
#X connect 11 0 2 0;
#X connect 12 0 3 1;
#X connect 13 0 6 0;
