#N canvas 154 377 1762 607 10;
#X obj 370 179 inlet;
#X obj 117 268 osc~;
#X obj 117 316 *~ 1;
#X obj 159 235 * 2;
#X obj 159 267 osc~;
#X obj 159 316 *~;
#X obj 205 234 * 3;
#X obj 205 263 osc~;
#X obj 205 315 *~;
#X obj 393 378 *~ 0.5;
#X obj 392 411 outlet~;
#X obj 257 263 osc~;
#X obj 257 315 *~;
#X obj 307 263 osc~;
#X obj 307 315 *~;
#X obj 355 262 osc~;
#X obj 355 314 *~;
#X obj 405 264 osc~;
#X obj 405 316 *~;
#X obj 257 234 * 4;
#X obj 307 234 * 5;
#X obj 356 232 * 6;
#X obj 406 235 * 7;
#X obj 117 234 * 1;
#X obj 455 266 osc~;
#X obj 455 318 *~;
#X obj 507 266 osc~;
#X obj 507 318 *~;
#X obj 557 268 osc~;
#X obj 557 320 *~;
#X obj 455 237 * 8;
#X obj 507 236 * 9;
#X obj 557 239 * 10;
#X obj 609 268 osc~;
#X obj 609 320 *~;
#X obj 609 239 * 11;
#X obj 174 289 r h2;
#X obj 220 289 r h3;
#X obj 272 289 r h4;
#X obj 322 289 r h5;
#X obj 370 288 r h6;
#X obj 420 290 r h7;
#X obj 470 292 r h8;
#X obj 522 291 r h9;
#X obj 572 294 r h10;
#X obj 624 294 r h11;
#X connect 0 0 3 0;
#X connect 0 0 6 0;
#X connect 0 0 19 0;
#X connect 0 0 20 0;
#X connect 0 0 23 0;
#X connect 0 0 21 0;
#X connect 0 0 22 0;
#X connect 0 0 30 0;
#X connect 0 0 31 0;
#X connect 0 0 32 0;
#X connect 0 0 35 0;
#X connect 1 0 2 0;
#X connect 2 0 9 0;
#X connect 3 0 4 0;
#X connect 4 0 5 0;
#X connect 5 0 9 0;
#X connect 6 0 7 0;
#X connect 7 0 8 0;
#X connect 8 0 9 0;
#X connect 9 0 10 0;
#X connect 11 0 12 0;
#X connect 12 0 9 0;
#X connect 13 0 14 0;
#X connect 14 0 9 0;
#X connect 15 0 16 0;
#X connect 16 0 9 0;
#X connect 17 0 18 0;
#X connect 18 0 9 0;
#X connect 19 0 11 0;
#X connect 20 0 13 0;
#X connect 21 0 15 0;
#X connect 22 0 17 0;
#X connect 23 0 1 0;
#X connect 24 0 25 0;
#X connect 25 0 9 0;
#X connect 26 0 27 0;
#X connect 27 0 9 0;
#X connect 28 0 29 0;
#X connect 29 0 9 0;
#X connect 30 0 24 0;
#X connect 31 0 26 0;
#X connect 32 0 28 0;
#X connect 33 0 34 0;
#X connect 34 0 9 0;
#X connect 35 0 33 0;
#X connect 36 0 5 1;
#X connect 37 0 8 1;
#X connect 38 0 12 1;
#X connect 39 0 14 1;
#X connect 40 0 16 1;
#X connect 41 0 18 1;
#X connect 42 0 25 1;
#X connect 43 0 27 1;
#X connect 44 0 29 1;
#X connect 45 0 34 1;
